HIERARCHY
ROOT Hips
{
	OFFSET 0.000000 0.000000 0.000000
	CHANNELS 6 Xposition Yposition Zposition Zrotation Yrotation Xrotation 
	JOINT LeftUpLeg_virtual
	{
		OFFSET 0.000000 0.000000 0.000000
		CHANNELS 3 Zrotation Yrotation Xrotation
		JOINT LeftUpLeg
		{
			OFFSET 8.479694 -4.795517 -0.379053
			CHANNELS 3 Zrotation Yrotation Xrotation
			JOINT LeftLeg
			{
				OFFSET 0.485052 -32.551468 0.112863
				CHANNELS 3 Zrotation Yrotation Xrotation
				JOINT LeftFoot
				{
					OFFSET 0.438033 -32.635670 -3.012641
					CHANNELS 3 Zrotation Yrotation Xrotation
					JOINT LeftToeBase
					{
						OFFSET 0.970169 -13.225353 11.864223
						CHANNELS 3 Zrotation Yrotation Xrotation
						End Site
						{
							OFFSET 0.000000 0.000000 0.000000
						}
					}
				}
			}
		}
	}
	JOINT RightUpLeg_virtual
	{
		OFFSET 0.000000 0.000000 0.000000
		CHANNELS 3 Zrotation Yrotation Xrotation
		JOINT RightUpLeg
		{
			OFFSET -8.479694 -4.795517 -0.379053
			CHANNELS 3 Zrotation Yrotation Xrotation
			JOINT RightLeg
			{
				OFFSET -0.484100 -32.551483 0.112903
				CHANNELS 3 Zrotation Yrotation Xrotation
				JOINT RightFoot
				{
					OFFSET -0.438985 -32.635651 -3.012681
					CHANNELS 3 Zrotation Yrotation Xrotation
					JOINT RightToeBase
					{
						OFFSET -0.970169 -13.225354 11.864223
						CHANNELS 3 Zrotation Yrotation Xrotation
						End Site
						{
							OFFSET 0.000000 0.000000 0.000000
						}
					}
				}
			}
		}
	}
	JOINT Spine_virtual
	{
		OFFSET 0.000000 0.000000 0.000000
		CHANNELS 3 Zrotation Yrotation Xrotation
		JOINT Spine
		{
			OFFSET 0.000000 7.722015 1.166203
			CHANNELS 3 Zrotation Yrotation Xrotation
			JOINT Spine1
			{
				OFFSET 0.000000 12.024086 0.248766
				CHANNELS 3 Zrotation Yrotation Xrotation
				JOINT Spine2
				{
					OFFSET -0.000000 11.503036 -0.491240
					CHANNELS 3 Zrotation Yrotation Xrotation
					JOINT Neck_virtual
					{
						OFFSET 0.000000 0.000000 0.000000
						CHANNELS 3 Zrotation Yrotation Xrotation
						JOINT Neck
						{
							OFFSET 0.000000 18.430687 -3.123054
							CHANNELS 3 Zrotation Yrotation Xrotation
							JOINT Head
							{
								OFFSET -0.000000 9.051071 1.034021
								CHANNELS 3 Zrotation Yrotation Xrotation
								End Site
								{
									OFFSET 0.000000 0.000000 0.000000
								}
							}
						}
					}
					JOINT LeftShoulder_virtual
					{
						OFFSET 0.000000 0.000000 0.000000
						CHANNELS 3 Zrotation Yrotation Xrotation
						JOINT LeftShoulder
						{
							OFFSET 6.197824 13.665230 -4.064723
							CHANNELS 3 Zrotation Yrotation Xrotation
							JOINT LeftArm
							{
								OFFSET 7.778132 -0.187073 -1.709282
								CHANNELS 3 Zrotation Yrotation Xrotation
								JOINT LeftForeArm
								{
									OFFSET 21.954697 0.000000 -2.041093
									CHANNELS 3 Zrotation Yrotation Xrotation
									JOINT LeftHand
									{
										OFFSET 22.992908 0.000000 -0.870901
										CHANNELS 3 Zrotation Yrotation Xrotation
										End Site
										{
											OFFSET 0.000000 0.000000 0.000000
										}
									}
								}
							}
						}
					}
					JOINT RightShoulder_virtual
					{
						OFFSET 0.000000 0.000000 0.000000
						CHANNELS 3 Zrotation Yrotation Xrotation
						JOINT RightShoulder
						{
							OFFSET -6.197824 13.665230 -4.064723
							CHANNELS 3 Zrotation Yrotation Xrotation
							JOINT RightArm
							{
								OFFSET -7.778132 -0.187073 -1.709282
								CHANNELS 3 Zrotation Yrotation Xrotation
								JOINT RightForeArm
								{
									OFFSET -21.954697 0.000000 -2.041093
									CHANNELS 3 Zrotation Yrotation Xrotation
									JOINT RightHand
									{
										OFFSET -22.992908 0.000000 -0.870901
										CHANNELS 3 Zrotation Yrotation Xrotation
										End Site
										{
											OFFSET 0.000000 0.000000 0.000000
										}
									}
								}
							}
						}
					}
				}
			}
		}
	}
}
MOTION
Frames: 4
Frame Time: 0.033333
-25.952017 78.989151 141.983994 179.864562 5.985553 -179.465638 -3.337494 -2.142991 12.182728 -0.533283 0.860200 -31.924847 12.152182 4.466419 31.538327 -6.212998 -8.961696 -9.474225 0.000000 0.000000 0.000000 0.874819 -2.259188 9.781707 -1.499710 9.451606 -34.757429 -1.022551 2.978521 32.362877 5.265632 4.843169 -11.843030 0.000000 0.000000 0.000000 4.050549 0.120130 -0.250128 -2.791769 -0.251909 -2.483063 -0.134585 -1.767402 9.636795 -0.030059 0.087376 0.104186 -0.446550 -0.491674 11.625949 1.229471 -1.194574 -6.276920 0.000000 0.000000 0.000000 0.701369 0.394905 8.462861 -13.516249 -7.697195 2.281738 -59.919112 -8.620261 11.296569 -1.483971 -9.424689 7.794505 0.000000 0.000000 0.000000 -2.872108 1.833611 8.001602 25.967350 2.523238 5.560654 43.811804 3.415659 14.141751 -4.264785 22.105844 -2.894834 0.000000 0.000000 0.000000 
-25.903952 78.979149 142.070251 179.805454 5.820509 -179.206801 -3.364943 -1.897233 12.594290 -0.400300 0.858218 -31.600256 12.158287 3.798837 31.768316 -6.575498 -9.405199 -9.008062 0.000000 0.000000 0.000000 0.772769 -2.191963 9.897027 -1.361439 9.297565 -34.894316 -0.981518 2.722663 32.561424 5.260271 4.791402 -11.702977 0.000000 0.000000 0.000000 3.950323 0.159408 -0.282213 -2.807164 -0.261681 -2.619776 -0.165375 -1.767221 9.655028 -0.011358 0.050867 0.052163 -0.368499 -0.362484 11.542300 1.320444 -1.296219 -6.509852 0.000000 0.000000 0.000000 0.753424 0.363793 8.431670 -13.503902 -7.722429 2.320550 -59.891716 -8.778841 11.431373 -1.419176 -9.606014 7.839533 0.000000 0.000000 0.000000 -2.854766 1.667467 7.972769 25.929206 2.501752 5.518996 43.766722 3.469768 14.295850 -4.292937 21.989948 -2.802777 0.000000 0.000000 0.000000 
-25.862793 78.973213 142.172897 179.801684 5.763300 -179.248671 -3.402492 -1.862527 12.715685 -0.260799 0.773412 -31.704512 11.983275 3.636561 31.759297 -6.516758 -9.369700 -9.062995 0.000000 0.000000 0.000000 0.836952 -2.109093 10.085350 -1.407744 9.432168 -35.108491 -1.060363 2.783857 32.597044 5.103709 4.619650 -11.675401 0.000000 0.000000 0.000000 3.920606 0.140354 -0.002897 -2.782496 -0.238759 -2.747046 -0.142191 -1.783798 9.499848 0.032548 0.026345 0.033178 -0.411235 -0.367471 11.646315 1.301850 -1.231975 -6.427624 0.000000 0.000000 0.000000 0.736553 0.402106 8.514072 -13.492069 -7.843858 2.388471 -59.886860 -8.988164 11.669003 -1.370770 -9.595559 8.010565 0.000000 0.000000 0.000000 -2.837530 1.803201 8.045760 25.979712 2.445856 5.558137 43.631361 3.773541 14.289718 -4.367116 21.849116 -2.959542 0.000000 0.000000 0.000000 
-25.811613 78.964317 142.253342 179.781876 5.590016 -179.280964 -3.447004 -1.874351 12.823406 -0.117336 0.668855 -31.812057 11.817285 3.521617 31.718613 -6.487469 -9.335414 -9.099186 0.000000 0.000000 0.000000 0.959731 -2.173596 10.240265 -1.506655 9.407984 -35.342879 -1.112609 2.867572 32.703878 4.989149 4.548624 -11.694146 0.000000 0.000000 0.000000 3.855551 0.141050 0.081218 -2.769427 -0.192357 -2.834602 -0.033505 -1.754969 9.524033 0.028878 0.053566 0.126092 -0.369669 -0.464851 11.602418 1.337893 -1.330509 -6.490323 0.000000 0.000000 0.000000 0.794549 0.338374 8.540465 -13.486843 -8.049685 2.502383 -59.787166 -9.208752 11.863627 -1.236856 -9.502321 8.097821 0.000000 0.000000 0.000000 -2.823696 1.829665 8.092280 26.034786 2.374202 5.441315 43.385662 4.157464 14.287768 -4.464237 21.597803 -2.802370 0.000000 0.000000 0.000000 
